<?xml version="1.0" standalone="no"?>
<!DOCTYPE svg PUBLIC "-//W3C//DTD SVG 20010904//EN"
 "http://www.w3.org/TR/2001/REC-SVG-20010904/DTD/svg10.dtd">
<svg version="1.0" xmlns="http://www.w3.org/2000/svg"
 width="1000.000000pt" height="1000.000000pt" viewBox="0 0 1000.000000 1000.000000"
 preserveAspectRatio="xMidYMid meet">
<metadata>
Created by potrace 1.14, written by Peter Selinger 2001-2017
</metadata>
<g transform="translate(0.000000,1000.000000) scale(0.100000,-0.100000)"
fill="#000000" stroke="none">
<path d="M5045 9451 c-8 -8 -151 -93 -270 -161 -24 -14 -305 -176 -442 -256
-18 -11 -98 -57 -179 -104 -80 -47 -178 -104 -218 -127 -39 -24 -107 -63 -151
-88 -44 -25 -87 -50 -95 -55 -58 -36 -173 -100 -181 -100 -5 0 -9 -4 -9 -9 0
-5 -6 -11 -13 -13 -9 -2 -679 -389 -777 -449 -8 -5 -82 -48 -165 -95 -326
-188 -517 -299 -588 -342 l-62 -37 -2 -760 c-1 -418 -4 -1596 -7 -2617 l-5
-1858 94 -55 c52 -30 99 -55 104 -55 6 0 11 -3 11 -7 0 -5 10 -13 23 -19 17
-8 250 -141 456 -261 17 -10 133 -77 258 -149 125 -73 300 -173 388 -224 88
-51 176 -102 195 -113 19 -11 49 -28 65 -38 17 -10 41 -24 55 -32 14 -7 129
-73 255 -146 528 -305 692 -400 725 -419 19 -12 46 -27 60 -35 14 -7 126 -72
250 -144 124 -71 235 -136 248 -142 21 -11 34 -6 120 45 53 31 112 65 130 76
18 10 103 59 187 108 84 49 169 98 187 108 44 26 205 120 243 143 17 10 53 30
80 44 28 15 57 33 66 41 8 8 18 14 21 14 3 0 111 61 239 136 129 75 252 147
274 159 22 13 162 94 310 180 282 165 311 181 373 216 20 12 102 60 182 107
80 46 159 92 175 102 17 9 75 43 130 75 55 32 125 73 155 90 30 18 116 67 190
110 74 43 137 81 140 86 3 4 6 399 8 877 l3 870 -143 82 c-79 46 -162 94 -185
106 -23 13 -93 54 -155 90 -62 37 -133 78 -158 92 -25 14 -200 115 -389 225
-189 109 -359 206 -378 215 -18 9 -33 19 -33 24 0 4 -6 8 -13 8 -7 0 -28 11
-47 23 -19 13 -60 37 -90 54 -30 17 -228 131 -440 253 -212 123 -401 232 -420
243 -73 40 -178 102 -248 144 -40 24 -83 48 -95 54 -12 5 -110 61 -217 123
l-195 114 3 1294 c2 711 5 1494 5 1740 2 399 0 448 -13 448 -9 0 -20 -4 -25
-9z m88 -5257 c34 -20 80 -47 102 -59 22 -13 86 -50 143 -84 57 -34 105 -61
106 -61 2 0 66 -37 142 -81 76 -45 159 -93 184 -107 25 -14 97 -55 160 -92 63
-36 151 -87 195 -112 44 -26 94 -55 112 -65 18 -10 121 -70 230 -133 109 -63
213 -122 231 -131 l33 -17 -133 -77 c-73 -43 -176 -103 -228 -133 -52 -31
-120 -70 -150 -87 -30 -18 -291 -169 -580 -337 -289 -168 -540 -313 -558 -322
l-33 -17 -167 97 c-185 107 -217 126 -264 152 -18 11 -91 53 -163 94 -71 42
-146 85 -165 96 -40 22 -392 226 -487 281 -34 20 -147 85 -252 146 -105 60
-191 112 -191 115 0 3 17 14 38 25 20 11 61 34 90 52 29 18 54 33 57 33 2 0
28 14 57 31 43 26 491 287 1323 770 55 32 101 59 103 59 2 0 31 -16 65 -36z"/>
</g>
</svg>
